<svg xmlns="http://www.w3.org/2000/svg" width="110px" height="110px" viewBox="2000 2000 7000 11000" class="logo">
    <path d="M5247.12 3920.35c414.13,-1309.89 2180.61,144.49 3507.89,-435.32 -737.82,1055.63 -2594.83,-367.94 -3303.68,1051.77 -19.3,-410.31 77.06,-807.12 782.05,-907.31 -418,-73.21 -691.53,-23.12 -986.26,290.86z" />
    <path d="M5969.51 9917.14c664.61,-458.43 651.09,-1086.49 651.09,-1086.49 0,-0.01 134.82,221.61 115.6,497.05 231.13,-254.3 315.92,-583.69 310.09,-861.11 73.26,439.21 -26.91,891.89 -265.78,1277.2 1099.97,-772.47 936.17,-1878.21 252.31,-2579.4 26.99,-140.69 26.99,-269.66 19.3,-358.35 -38.52,146.45 -119.47,385.32 -250.42,576.01l0.02 0c217.66,188.78 371.71,450.77 410.31,793.68 -78.96,-219.65 -213.86,-471.96 -493.17,-645.31l-65.51 100.15c46.29,55.86 88.61,113.63 127.16,171.46 -73.19,115.53 -210,184.91 -398.78,159.83 -131.03,-17.31 -235,-80.87 -421.88,-234.99 86.73,179.13 267.75,304.38 456.59,346.72 -154.11,98.27 -558.64,-11.56 -726.24,-154.05 -88.61,-77.09 -96.3,-208.09 -21.21,-292.85 9.67,-9.65 19.25,-21.19 28.9,-30.84 7.74,-7.68 15.43,-17.33 23.1,-25 26.98,-30.8 52.05,-61.64 67.42,-96.3l0 0c52.05,-90.6 55.92,-148.35 194.62,-223.46 102.08,-55.92 229.2,-98.26 333.18,-165.67 198.44,-127.15 200.35,-267.76 156.1,-473.88 -86.77,-418.08 -67.41,-362.18 -61.63,-772.51 1.91,-132.9 -11.63,-223.46 -27.04,-283.18 21.26,-11.56 42.4,-23.1 65.49,-34.67 26.99,53.93 80.87,90.54 144.48,90.54 88.63,0 161.81,-73.21 161.81,-161.8 0,-9.67 -1.9,-19.28 -3.87,-30.82 169.56,-1.93 134.91,256.21 134.91,256.21 0,-0.02 90.57,3.85 290.84,-144.48 200.36,-148.33 260.08,-240.82 260.08,-240.82 -227.31,-19.26 -572.13,-138.7 -882.22,-19.24 261.91,-171.45 579.82,-165.69 837.91,-67.42 -248.52,-192.66 -554.73,-171.45 -776.29,-63.57 -254.28,123.26 -431.52,275.47 -431.52,275.47 0,-0.02 -204.2,-55.89 -331.36,-310.17 0.02,0 7.77,242.74 267.81,535.55 102.08,117.49 100.11,510.47 150.25,760.93 38.47,184.92 136.74,489.3 -146.44,510.43 -107.89,7.73 -242.66,-1.9 -323.59,73.26 -138.7,127.14 -273.54,127.14 -273.54,127.14 0.02,0 -132.92,0 -271.62,-127.14 -57.77,-53.95 -144.48,-63.61 -227.33,-67.48 -109.8,-5.78 -235.06,0 -277.4,-127.08 -59.73,198.36 21.21,367.92 323.61,460.4 138.72,75.09 142.59,132.86 194.57,223.46 15.43,34.66 40.51,65.52 67.42,96.3 7.74,7.67 15.43,17.32 23.1,25 9.67,9.64 19.3,21.19 28.95,30.84 75.11,84.75 67.42,215.78 -23.18,292.85 -165.6,142.49 -572.13,252.32 -724.29,154.05 186.9,-42.34 369.9,-167.57 456.55,-346.72 -188.73,154.12 -292.77,217.68 -421.89,234.99 -500.84,67.43 -637.57,-531.62 -184.92,-880.31 -123.26,-111.73 -294.73,-389.12 -281.21,-633.77 -102.13,200.32 -40.49,464.21 21.21,631.87 -25.08,25 -48.18,51.99 -69.39,80.86 -310.14,-308.27 -606.78,-703.1 -337.13,-1134.61 -317.83,315.91 -287.05,616.44 -138.64,915.05 -410.32,321.68 -423.86,903.42 -335.23,1217.46 55.87,-489.32 225.41,-805.24 477.74,-976.69 63.55,98.19 132.92,194.57 198.44,290.85 -3.87,36.64 -7.75,73.26 -5.78,109.82 -84.74,310.16 7.69,643.42 82.77,853.36 163.78,466.18 -194.48,213.86 -231.12,-55.87 -202.23,782.13 882.29,822.56 1078.76,1760.72 130.96,-710.85 -256.2,-774.38 -63.53,-1400.47 0,-0.01 -177.24,136.8 -250.42,366.01l-13.53 -19.22c-88.61,-287.07 -9.65,-678.08 -9.65,-678.08 -121.3,90.5 -183.02,202.23 -200.34,319.74 -57.77,-148.3 -86.65,-321.73 -51.99,-547.07 129.06,82.83 283.17,127.16 450.77,111.73 242.74,-23.12 479.64,-156.04 714.7,-159.91 236.9,3.87 473.88,136.79 716.53,159.91 158.02,13.44 306.37,-25.08 431.54,-100.17 26.97,77.05 77.06,258.09 40.44,510.5 -55.87,-190.71 -242.69,-342.93 -242.69,-342.93 0,0 -1.9,508.6 -129.04,870.76 -15.43,-265.86 -184.99,-454.65 -184.99,-454.65 0,0 57.83,493.17 -190.67,1140.39z" />
    <path d="M3082.38 8531.14c7.69,841.81 340.95,1238.62 604.83,1487.14 -352.49,-697.33 -329.39,-1398.58 5.77,-2145.97 -177.16,903.48 34.74,1589.25 705.07,2186.4 676.2,604.9 1932.09,1666.33 653.08,2671.91 737.82,-1021.01 -304.39,-1901.32 -868.85,-2438.82 131.03,508.6 450.83,891.89 450.83,891.89 -529.79,-252.33 -972.82,-535.43 -1269.52,-888.01 19.31,244.64 -30.78,498.94 -200.34,774.38 98.29,-864.9 -421.87,-1394.64 -670.33,-2107.43 -32.75,252.37 -225.41,541.35 -396.87,589.45 123.34,-423.78 9.65,-1019.03 119.47,-1537.2 140.6,-656.89 475.83,-1069.12 945.83,-1255.99 -705.05,824.44 -489.3,1568.06 -329.39,2057.36 40.43,121.36 86.64,238.86 136.73,352.48 5.86,-196.47 42.4,-406.44 113.69,-637.59z" />
    <path d="M5033.33 9254.49c-106.03,967.04 608.69,1404.29 608.69,1404.29 -238.87,-891.87 876.5,-1084.53 219.65,-2219.16 0,-0.02 132.92,527.83 -115.6,970.91 28.87,-317.85 -169.56,-670.4 -169.56,-670.4 96.37,624.11 -177.23,651.1 -142.51,1184.7 -136.8,-123.27 -348.7,-385.25 -400.67,-670.34z" />
    <path d="M6847.93 6447.76c13.44,244.65 -157.94,522.06 -281.23,633.79 71.24,53.86 115.54,98.27 157.94,159.89 130.96,-227.31 248.44,-545.14 123.29,-793.68z" />
    <path d="M3415.18 4159.26c-1963.04,-96.34 -1381.24,1633.53 -2531.3,2180.62 396.87,-38.54 712.81,-171.44 986.34,-346.72 -186.88,485.38 -196.47,1148.13 115.52,2084.3 -67.4,-1246.34 1171.27,-1215.49 1408.23,-2336.66 -250.42,514.32 -876.51,608.73 -1300.31,1150.06 -30.84,-481.63 121.38,-915.06 471.98,-1281.05 708.86,-739.76 1887.8,-812.95 1945.63,-1554.58 -165.67,339.02 -780.22,493.13 -1388.93,772.45 -317.83,113.64 -697.31,308.24 -903.49,446.94 188.79,-599.12 393,-826.41 1196.33,-1115.36z" />
    <path d="M4376.44 4103.37c-670.4,-161.79 -928.57,-945.83 -290.92,-1252.14 352.49,-169.5 1668.23,-394.9 1697.11,-941.99 -337.13,310.16 -1163.51,418.04 -1826.18,577.91 -672.3,161.81 -1506.42,739.74 -785.99,1379.28 -146.39,-265.86 -55.79,-554.8 146.44,-722.39 -111.71,506.64 315.94,1082.64 1059.54,959.33z" />
    <path d="M5378.15 5105.08c0,0 -9.65,242.74 -267.82,535.55 -258.12,292.81 -167.52,943.94 -167.52,943.94 0,-0.02 -117.58,-373.74 -121.46,-745.54 -1.88,-132.9 11.56,-223.46 26.99,-283.18 -21.21,-11.56 -44.25,-23.1 -67.42,-34.67 -25.01,53.93 -80.87,90.54 -144.48,90.54 -88.61,0 -159.83,-73.21 -159.83,-161.8 0,-9.67 0,-19.28 1.91,-30.82 -167.58,-1.93 -132.94,256.21 -132.94,256.21 0.02,-0.02 -90.58,3.85 -290.84,-144.48 -202.31,-148.33 -260.08,-240.82 -260.08,-240.82 227.31,-19.26 572.13,-138.7 882.22,-19.24 -263.88,-171.45 -581.71,-165.69 -837.92,-67.42 248.52,-192.66 554.74,-171.45 776.29,-63.57 254.3,123.26 431.53,275.47 431.53,275.47 0,-0.02 204.21,-55.89 331.37,-310.17z" />
    <path d="M8192.47 2699.05c-705.01,1194.33 -2253.81,-98.24 -3084.05,647.26 -275.51,244.65 -304.33,653.04 17.32,1113.44 -525.84,-258.13 -616.44,-789.79 -421.88,-1217.46 -288.95,173.37 -381.38,443.06 -389.12,706.99 -340.95,-574.08 167.65,-1040.24 691.6,-1180.88 1082.56,-288.96 2575.52,508.56 3186.13,-69.35z" />
    <path d="M5929.07 4251.7c1319.52,-797.51 2195.98,1028.7 3687.05,618.36 -1360.04,899.62 -2635.27,-868.79 -3687.05,-618.36z" />
    <path d="M5743.61 11064.11c-137.91,1257.89 791.78,1826.65 791.78,1826.65 -217.54,-812.21 428.31,-1178.63 541.99,-1831.86 118.3,220.33 341.83,412.11 716.18,552.21 -973.73,-720.25 -275.59,-1830.71 84.81,-2487.77 28.27,504.17 -152.95,948.61 -152.95,948.61 411.79,-385.7 735.14,-774.26 904.16,-1183.8 53.65,229.75 173.69,448.15 409.34,651.04 -342.25,-763.74 -20.19,-1400.76 -0.42,-2126.26 103.61,221.66 364.38,430.24 535.51,424.3 -236.58,-352.29 -306.01,-930.8 -557.75,-1373.51 -320.39,-560.83 -747.72,-840.73 -1232.81,-874.89 886.39,549.73 905.55,1293.95 901.76,1788.86 -1.67,122.98 -9.73,244.11 -22.5,362.82 -62.65,-178.32 -157.36,-360.03 -290.08,-551.01 238.44,773.51 48.82,1234.23 -120.46,1538.85 119.6,-741.64 -106.07,-1377.38 -631.1,-1964.39 425.8,776.08 431.64,1466.18 -8.36,2208.76 -219.31,371.87 -535.95,887.59 -622.39,1380.17 -41.72,-108.43 -97.09,-224.14 -169.23,-348.75 0,-0.02 172.89,686.59 -150.37,1262.94 37.56,-413.46 -220.55,-872.03 -220.55,-872.03 125.36,811.82 -230.53,846.92 -185.39,1541.02 -177.92,-160.36 -453.56,-501.13 -521.17,-871.96z" />
</svg>